<svg id="b81d2e8c-fc67-4f60-9bda-93796138ee03" data-name="Capa 1" xmlns="http://www.w3.org/2000/svg" viewBox="0 0 449.35 448.25"><defs><style>.a521d60f-a006-4c87-b0bd-50b2c5172979{fill:#a38a59;}</style></defs><title>GOBIERNO_NL_Cir</title><path class="a521d60f-a006-4c87-b0bd-50b2c5172979" d="M221.59,404.68c-12.29-2.16-23.17,5.48-25.34,17.89A21.39,21.39,0,0,0,214,447.88c12.4,2.17,23.29-5.46,25.44-17.75s-5.47-23.28-17.87-25.45M216,436.78c-5.87-1-9.19-6.38-8.17-12.18s6-9.77,11.83-8.74,9.2,6.32,8.16,12.24-5.9,9.72-11.82,8.68"/><path class="a521d60f-a006-4c87-b0bd-50b2c5172979" d="M288.29,395.22l-14.76,5.1a1,1,0,0,0-.6,1.23,1,1,0,0,0,1.23.6,3.55,3.55,0,0,1,4.39,1.71l12.28,35.56,30.74-10.61-3.4-9.84-19.36,6.69Z"/><path class="a521d60f-a006-4c87-b0bd-50b2c5172979" d="M69.64,358.65c-4.31,3.44-8.8,3.34-12.16-.88s-2.48-8.44,1.88-11.92l18.22-14.53L67.84,319.1a1,1,0,0,0-1.52,1.21,3.55,3.55,0,0,1-.2,4.77L51.22,337c-8.67,6.91-10.45,17.55-2.36,27.69s19.56,10.36,27.6,4l18.86-15.05-7.48-9.42Z"/><path class="a521d60f-a006-4c87-b0bd-50b2c5172979" d="M103,361.22a1,1,0,0,0,.25,1.34,3.55,3.55,0,0,1,1.07,4.84L83.19,398.13,111.8,417.8l5.92-8.63L98.62,396l3.51-5.11,15.34,10.54,5.57-8.11L107.7,382.82l3.2-4.65L130,391.3l5.93-8.62L104.34,361a1,1,0,0,0-1.35.25"/><path class="a521d60f-a006-4c87-b0bd-50b2c5172979" d="M314.93,385.65a1,1,0,0,0,1.34.28,3.56,3.56,0,0,1,4.85.75l20.66,31.13,28.92-19.2-5.79-8.72L345.6,402.71l-3.43-5.16,15.5-10.3-5.44-8.19-15.5,10.29-3.12-4.7,19.31-12.82-5.78-8.72-31.94,21.2a1,1,0,0,0-.27,1.34"/><path class="a521d60f-a006-4c87-b0bd-50b2c5172979" d="M370.38,339.29c-7.81,9.72-6.38,22.93,3.44,30.83a21.38,21.38,0,0,0,30.74-3.34c7.9-9.81,6.46-23-3.25-30.84s-23-6.46-30.93,3.35m25.43,20.38c-3.73,4.63-10,5-14.61,1.27s-5.67-9.95-1.94-14.59,10-5,14.67-1.23,5.66,9.86,1.88,14.55"/><path class="a521d60f-a006-4c87-b0bd-50b2c5172979" d="M371.33,322.43l-1.95-1.56-13.2,16.41a6.25,6.25,0,0,0,.95,8.8l1.94,1.56,13.21-16.42a6.26,6.26,0,0,0-.95-8.79"/><path class="a521d60f-a006-4c87-b0bd-50b2c5172979" d="M410,268.2l-6.07,14.43,21.66,9.11-29.19,8.79-4,9.59,34.37,14.46a3.55,3.55,0,0,1,1.72,4.65,1,1,0,1,0,1.78.75l6.07-14.43-21.6-9.09,29.11-8.76,4.06-9.64L413.49,273.6a3.55,3.55,0,0,1-1.71-4.65,1,1,0,0,0-1.79-.75"/><path class="a521d60f-a006-4c87-b0bd-50b2c5172979" d="M186.44,405.85a3.64,3.64,0,0,1,3.44-.59,1,1,0,0,0,.61-1.84l-1.64-.54-12.48-4.17L156.76,424.6V392.16L144.22,388l1.54,45.43,14.44,4.83,25.14-31Z"/><path class="a521d60f-a006-4c87-b0bd-50b2c5172979" d="M24.94,326.57a3.54,3.54,0,0,1,1.73-4.64L61.1,307.61,56.48,296.5l-21.7,9,14.24-27-5.38-12.94a1,1,0,1,0-1.79.75,3.56,3.56,0,0,1-1.57,4.56L5.68,285.32l4.62,11.11,21.64-9-14.2,26.88,5.41,13a1,1,0,0,0,1.26.53,1,1,0,0,0,.53-1.27"/><path class="a521d60f-a006-4c87-b0bd-50b2c5172979" d="M5.54,215.08c3.33,0,4.76-1,4.76-3.64,0-2.36-1.52-3.4-4.28-3.4a15.4,15.4,0,0,0-5.26,1.1L1,212a10.78,10.78,0,0,1,4.45-1.41c1.58,0,2,.23,2,1s-.39,1-2.3,1C2.77,212.56,0,214.36,0,217v2.19H10.07v-2.51H3c.16-1.12,1.18-1.61,2.58-1.61"/><path class="a521d60f-a006-4c87-b0bd-50b2c5172979" d="M16.82,213.71c0,3.7,2.3,5.67,6,5.67s6-2,6-5.67-2.29-5.66-6-5.66-6,2-6,5.66m9.07,0c0,2.26-.48,3.08-3.07,3.08s-3.07-.82-3.07-3.08.47-3.07,3.07-3.07,3.07.81,3.07,3.07"/><path class="a521d60f-a006-4c87-b0bd-50b2c5172979" d="M36.25,212a10.78,10.78,0,0,1,4.45-1.41c1.57,0,2,.23,2,1s-.4,1-2.3,1c-2.39,0-5.15,1.8-5.15,4.45v2.19H45.33v-2.51H38.21c.17-1.12,1.19-1.61,2.59-1.61,3.33,0,4.75-1,4.75-3.64,0-2.36-1.52-3.4-4.28-3.4a15.39,15.39,0,0,0-5.25,1.1Z"/><path class="a521d60f-a006-4c87-b0bd-50b2c5172979" d="M52.14,216.69v2.51h8.52v-2.51H57.83v-8.48H55v.32a2.16,2.16,0,0,1-2.43,2h-.33v2.68h.33a4.31,4.31,0,0,0,2.43-.7v4.19Z"/><path class="a521d60f-a006-4c87-b0bd-50b2c5172979" d="M391.83,212.56c-2.38,0-5.15,1.8-5.15,4.45v2.19h10.07v-2.51h-7.11c.16-1.12,1.18-1.61,2.58-1.61,3.33,0,4.75-1,4.75-3.64,0-2.36-1.51-3.4-4.27-3.4a15.4,15.4,0,0,0-5.26,1.1l.23,2.81a10.78,10.78,0,0,1,4.45-1.41c1.58,0,2,.23,2,1s-.39,1-2.3,1"/><path class="a521d60f-a006-4c87-b0bd-50b2c5172979" d="M415.49,213.71c0-3.7-2.29-5.67-6-5.67s-6,2-6,5.67,2.29,5.67,6,5.67,6-2,6-5.67m-9.06,0c0-2.26.48-3.08,3.07-3.08s3.07.82,3.07,3.08-.48,3.08-3.07,3.08-3.07-.82-3.07-3.08"/><path class="a521d60f-a006-4c87-b0bd-50b2c5172979" d="M427.09,212.56c-2.38,0-5.15,1.8-5.15,4.45v2.19H432v-2.51H424.9c.16-1.12,1.17-1.61,2.58-1.61,3.33,0,4.76-1,4.76-3.64,0-2.36-1.52-3.4-4.28-3.4a15.4,15.4,0,0,0-5.26,1.1l.23,2.81a10.77,10.77,0,0,1,4.44-1.41c1.59,0,2,.23,2,1s-.39,1-2.3,1"/><polygon class="a521d60f-a006-4c87-b0bd-50b2c5172979" points="442.09 219.2 449.35 210.51 449.35 208.21 438.6 208.21 438.6 210.72 445.69 210.72 438.61 219.2 442.09 219.2"/><path class="a521d60f-a006-4c87-b0bd-50b2c5172979" d="M127.92,174.93v17.38a11.34,11.34,0,0,0,2.65,7.37l13.64,17.57c-1-.1-2.09-.17-3.18-.17H127.2v17.67a11.57,11.57,0,0,0,2.69,7.48l16.34,21a8.73,8.73,0,0,0,7.08,3.62h31.06a20.56,20.56,0,0,0-2.28,9.25v10.34l9.08,7.06a1.65,1.65,0,0,1,0,2L184,301.26H173.16A19.23,19.23,0,0,0,154,320.47v17.2h53.68l41.08-45.62,14.67,9.21H256a19.23,19.23,0,0,0-19.21,19.21v17.2H283l30.52-24.44.47-.42a13.08,13.08,0,0,0,.17-18.28l-17.38-20.62-.55-.58V243.51l5.13-5.13a31.56,31.56,0,0,0,0-44.54l-2.28-2.28a20.12,20.12,0,0,1,14.24-34.33h2v12.29a8.15,8.15,0,0,0,8.15,8.16h3.24V154a8.14,8.14,0,0,0-8.14-8.14h-5.22a31.51,31.51,0,0,0-22.31,53.77l2.28,2.28a20.14,20.14,0,0,1,0,28.43l-2.83,2.83-23.81-17.43,7.25-5.58.09-56.57a35.42,35.42,0,0,0-35.42-35.48H191.17a2.65,2.65,0,0,0-2.1,4.26l5.08,6.59-22.1,8.63a6,6,0,0,0-4.31,5.76v25.14a6.61,6.61,0,0,0,1.94,4.69l6.28,6.28a6.62,6.62,0,0,0,4.68,1.93h13.07l-3.52,3.07a23.8,23.8,0,0,0-4.13,4.74h-19l-.92-1.18c-6.95-8.92-14.76-13.08-24.58-13.08Zm64.57,48.88-8.37,7.89h-17l-1-1.27a41.68,41.68,0,0,0-6.39-6.62Zm10.08,102.47H165.35v-5.81a7.81,7.81,0,0,1,7.81-7.81H188l10.64-8.52.47-.42a13.08,13.08,0,0,0,0-18.47l-5.59-4.41v-4.76a9.24,9.24,0,0,1,9.23-9.24h27.95a.72.72,0,0,1,.42.15l6.34,5.08V279a11,11,0,0,0,2,6.35ZM284.74,243a.83.83,0,0,1,.1.41v30.24a10.69,10.69,0,0,0,3.53,8L305.6,302l.33.37a1.68,1.68,0,0,1,.14,2.21L279,326.28h-30.8v-5.81a7.81,7.81,0,0,1,7.81-7.81h17.21l1.66-1.62a11,11,0,0,0-.8-16.47l-25.27-15.91V266.6l-10.61-8.5a12.09,12.09,0,0,0-7.54-2.65H154.61l-15.73-20.21-.28-6.76H141c6.47,0,11.13,2.6,16.09,9l4.4,5.66h27.13l15.22-14.36,25.24,15.85,28.16-21.65ZM182.6,170l-3.47-3.47V147l24.45-9.54,10.72,11.95v14L206.8,170ZM197.67,193l6.11-5.32,19-16.54.28-.27a8.9,8.9,0,0,0,2.64-6.36v-16a8.69,8.69,0,0,0-2.42-6.13l-11.6-12.91h26.91a24,24,0,0,1,24,24.06l-.08,51L228.48,230.7l-25.61-16.22-3.22-1.83a12.06,12.06,0,0,1-2-19.61m-40.53,2,4.35,5.58h20.73a22.52,22.52,0,0,0,2.29,11.82H154.87l-15.31-19.72-.25-6.37h2.24c6.27,0,10.79,2.52,15.59,8.69"/><path class="a521d60f-a006-4c87-b0bd-50b2c5172979" d="M126.83,160.43v3.24h23.7a8.13,8.13,0,0,0,8.14-8.14v-3.25H135a8.15,8.15,0,0,0-8.15,8.15"/><path class="a521d60f-a006-4c87-b0bd-50b2c5172979" d="M207.68,111.32h40.79a2.47,2.47,0,0,0,2.47-2.47V92a2.23,2.23,0,0,0-1.26-2,2.19,2.19,0,0,0-2.31.34l-9,7.86-8.63-7.78a2.48,2.48,0,0,0-3.3,0l-8.81,7.48-8.89-7.52a2,2,0,0,0-2.28-.3A2.12,2.12,0,0,0,205.21,92v16.9a2.46,2.46,0,0,0,2.47,2.47"/><polygon class="a521d60f-a006-4c87-b0bd-50b2c5172979" points="41.25 151.61 46.23 137.67 51.18 139.44 44.17 159.03 22.45 151.27 29.32 132.04 34.27 133.81 29.42 147.39 32.65 148.54 36.53 137.69 41.47 139.46 37.6 150.31 41.25 151.61"/><polygon class="a521d60f-a006-4c87-b0bd-50b2c5172979" points="50.59 128.73 56.45 117.04 61.14 119.39 52.6 136.44 31.98 126.12 34.67 120.75 50.59 128.73"/><path class="a521d60f-a006-4c87-b0bd-50b2c5172979" d="M67.38,88.23,75.6,77.76l9.88,7.73-3.7,4.72-1.33-1a15.43,15.43,0,0,1-3.3,7.52c-5,6.36-12.22,8.13-18,3.64S53.48,88.37,58.47,82c5.45-7,11.31-7.44,11.31-7.44l.15,5.52s-3.41.45-7.19,5.27c-3.24,4.13-3.53,7.15.25,10.12s6.65,2,9.89-2.16C74.7,91,75.4,88.94,75,87l-3.5,4.45Z"/><path class="a521d60f-a006-4c87-b0bd-50b2c5172979" d="M99.75,56.26c5,5.35,3.78,12.71-2.15,18.21s-13.35,6.11-18.3.77S75.51,62.54,81.44,57s13.36-6.12,18.31-.78M85.13,61c-3.85,3.58-4.6,6.52-1.33,10s6.26,3,10.11-.57,4.61-6.52,1.34-10-6.26-3-10.12.58"/><path class="a521d60f-a006-4c87-b0bd-50b2c5172979" d="M124.7,45.23c2.57,3.73,1.09,6.94-3.46,10.08L110.07,63,97,44l9.57-6.61c4.86-3.35,8.45-3.22,10.95.41a5.5,5.5,0,0,1,1.11,4.45c3.21-.51,4.75,1,6.1,2.94M113,41.31c-.59-.85-1.2-1.14-3.51.45L104.89,45l2,2.89,5-3.46c2-1.37,1.72-2.22,1.13-3.08m-1,14L118.26,51c1.41-1,1.57-1.92.87-2.94s-1.48-1.24-4.25.67l-5,3.46Z"/><rect class="a521d60f-a006-4c87-b0bd-50b2c5172979" x="125.41" y="25.89" width="6" height="23.07" transform="translate(-1.93 67.43) rotate(-29.21)"/><polygon class="a521d60f-a006-4c87-b0bd-50b2c5172979" points="143.75 36.56 157.28 30.55 159.41 35.34 140.41 43.8 131.03 22.73 149.68 14.44 151.81 19.24 138.65 25.1 140.04 28.22 150.56 23.54 152.7 28.34 142.18 33.02 143.75 36.56"/><path class="a521d60f-a006-4c87-b0bd-50b2c5172979" d="M178.11,22.83l6.3,5-6.79,2-5.73-4.51-5.29,1.55,1.66,5.7-5.76,1.68L156,12.06l13.8-4c6.67-1.94,9.95,2.75,10.76,5.5.88,3,.64,6.94-2.48,9.31m-6.81-9.76-8,2.35,1.85,6.34,8.47-2.48c2.55-.74,1.76-3.55,1.73-3.67-.3-1-1.3-3.34-4-2.54"/><polygon class="a521d60f-a006-4c87-b0bd-50b2c5172979" points="201.76 1.72 207.35 0.91 210.67 23.73 205.34 24.5 191.38 12.08 193.43 26.23 187.84 27.04 184.52 4.23 189.85 3.45 203.81 15.88 201.76 1.72"/><path class="a521d60f-a006-4c87-b0bd-50b2c5172979" d="M241.75,12.11c-.11,7.29-6.05,11.79-14.13,11.66S213.74,19,213.85,11.67,219.91-.13,228,0s13.88,4.82,13.76,12.11M227.9,5.44c-5.25-.09-7.83,1.52-7.91,6.33s2.46,6.49,7.71,6.57,7.83-1.52,7.91-6.33-2.45-6.49-7.71-6.57"/><path class="a521d60f-a006-4c87-b0bd-50b2c5172979" d="M282.06,19.15c-1.67,7.59-6.22,10.46-12.75,9L257,25.46,261.9,2.94l12.36,2.72c6.53,1.43,9.46,5.91,7.8,13.49m-8.93-8.36-6.49-1.43-2.7,12.26,6.5,1.42c2.17.48,4.1,1.05,5.48-5.24s-.61-6.53-2.79-7"/><polygon class="a521d60f-a006-4c87-b0bd-50b2c5172979" points="290.14 28.62 304.05 33.7 302.24 38.64 282.7 31.49 290.63 9.83 309.8 16.85 307.99 21.78 294.46 16.83 293.28 20.05 304.1 24.01 302.29 28.94 291.48 24.98 290.14 28.62"/><polygon class="a521d60f-a006-4c87-b0bd-50b2c5172979" points="312.96 38.11 324.6 44.04 322.22 48.72 305.22 40.06 315.69 19.52 321.04 22.24 312.96 38.11"/><polygon class="a521d60f-a006-4c87-b0bd-50b2c5172979" points="362.87 49.27 367.32 52.76 353.11 70.92 348.87 67.6 348.21 48.92 339.39 60.18 334.94 56.7 349.15 38.54 353.39 41.86 354.05 60.54 362.87 49.27"/><path class="a521d60f-a006-4c87-b0bd-50b2c5172979" d="M377.08,77.87l7.83-7.51,4.15,4.33-7.83,7.51c-5.68,5.45-12.18,5.47-17.37,0s-4.9-11.9.78-17.35l7.83-7.5,4.16,4.32-7.84,7.51c-3.65,3.51-4,6.2-1,9.27S373.42,81.38,377.08,77.87Z"/><polygon class="a521d60f-a006-4c87-b0bd-50b2c5172979" points="382.4 95.22 391.15 107.16 386.9 110.27 374.62 93.47 393.23 79.85 405.29 96.33 401.05 99.43 392.54 87.8 389.77 89.82 396.57 99.12 392.33 102.22 385.53 92.93 382.4 95.22"/><polygon class="a521d60f-a006-4c87-b0bd-50b2c5172979" points="417.18 117.11 420.32 122.87 396.03 126.52 391.85 118.87 408.05 100.4 411.2 106.16 399.21 119.81 417.18 117.11"/><path class="a521d60f-a006-4c87-b0bd-50b2c5172979" d="M420.78,156.16c-6.82,2.55-13.19-1.33-16-8.91S404.18,132.57,411,130s13.19,1.33,16,8.9.58,14.69-6.25,17.24m1.16-15.33c-1.84-4.93-4.28-6.74-8.78-5.06s-5.15,4.66-3.31,9.58,4.28,6.74,8.78,5.05,5.15-4.65,3.31-9.57"/></svg>